<svg xmlns="http://www.w3.org/2000/svg" viewBox="0 0 14.4 25"><title>facebook-white</title><path d="M19.4,1.47Z" transform="translate(-5.3 0)" style="fill:#fff"/><path d="M10.21,25a1.43,1.43,0,0,1-1.43-1.43V15h-2A1.44,1.44,0,0,1,5.3,13.52V9.73A1.43,1.43,0,0,1,6.73,8.3h2V6.65a6.7,6.7,0,0,1,1.78-4.81A6.38,6.38,0,0,1,15.27,0h3A1.43,1.43,0,0,1,19.7,1.44V5a1.43,1.43,0,0,1-1.43,1.43h-2a1.27,1.27,0,0,0-.63.09,2.38,2.38,0,0,0,0,.56V8.3h2.55a1.54,1.54,0,0,1,.7.17,1.45,1.45,0,0,1,.74,1.26v3.79A1.43,1.43,0,0,1,18.13,15H15.58v8.61A1.46,1.46,0,0,1,14.13,25Zm3.43-1.93v-9a1,1,0,0,1,1-1h2.95V10.22H14.68a1,1,0,0,1-1-1V7a2.65,2.65,0,0,1,.54-1.84,2.65,2.65,0,0,1,2.06-.73h1.52V1.93H15.27c-2.81,0-4.57,1.8-4.57,4.71V9.18a1,1,0,0,1-1,1H7.22V13H9.66a1,1,0,0,1,1,1v9Z" transform="translate(-5.3 0)" style="fill:#fff"/></svg>