<svg xmlns="http://www.w3.org/2000/svg" viewBox="0 0 23.22 25"><title>github</title><path d="M9.51,20.74C4.07,22.37,4.07,18,1.89,17.47M17.13,24V19.76a3.81,3.81,0,0,0-1-2.83c3.37-.44,7-1.64,7-7.62a6,6,0,0,0-1.63-4.14A5.47,5.47,0,0,0,21.37,1S20.06.6,17.13,2.67a15.13,15.13,0,0,0-7.62,0C6.57.71,5.26,1.15,5.26,1.15a5.46,5.46,0,0,0-.11,4.13A5.88,5.88,0,0,0,3.52,9.42c0,5.87,3.59,7.18,7,7.62a3.35,3.35,0,0,0-1,2.82V24" transform="translate(-0.89 0)" style="fill:none;stroke:#fff;stroke-linecap:round;stroke-linejoin:round;stroke-width:2px"/></svg>