<svg xmlns="http://www.w3.org/2000/svg" viewBox="0 0 24.91 24.91"><title>linkedin-white</title><path d="M21.8,24.92H3.07a3,3,0,0,1-.84-.2A3.37,3.37,0,0,1,0,21.55V3.4a3.64,3.64,0,0,1,.11-.87A3.39,3.39,0,0,1,3.43,0H21.52a3.57,3.57,0,0,1,.8.09,3.36,3.36,0,0,1,2.61,3.31v18.1a3.07,3.07,0,0,1-.15,1,3.35,3.35,0,0,1-2.45,2.31C22.16,24.87,22,24.89,21.8,24.92ZM23,12.47V3.32a1.39,1.39,0,0,0-.31-.85,1.47,1.47,0,0,0-1.21-.54H3.38A1.42,1.42,0,0,0,1.94,3.38q0,9.09,0,18.18a1.28,1.28,0,0,0,.05.38A1.43,1.43,0,0,0,3.42,23H21.64a1.41,1.41,0,0,0,.86-.33A1.43,1.43,0,0,0,23,21.52Z" transform="translate(-0.02 -0.02)" style="fill:#fff"/><path d="M9.6,9.6h3.83v1.66l0,0,.07-.09a2.9,2.9,0,0,1,1-1.07,3.42,3.42,0,0,1,1.43-.48,6,6,0,0,1,2.32.15,3.36,3.36,0,0,1,2.39,2.26A7.88,7.88,0,0,1,21,13.77c.07.7.07,1.4.07,2.1v5.21H17.26V15.36A4.54,4.54,0,0,0,17.11,14,1.43,1.43,0,0,0,15.72,13a2.94,2.94,0,0,0-1,.08,1.61,1.61,0,0,0-1.14,1.18,5.44,5.44,0,0,0-.17,1.5v5.38H9.6Z" transform="translate(-0.02 -0.02)" style="fill:#fff"/><path d="M7.68,9.6V21.08H3.86V9.6Z" transform="translate(-0.02 -0.02)" style="fill:#fff"/><path d="M3.85,5.76A1.92,1.92,0,1,1,5.76,7.68,1.91,1.91,0,0,1,3.85,5.76Z" transform="translate(-0.02 -0.02)" style="fill:#fff"/></svg>