<svg xmlns="http://www.w3.org/2000/svg" viewBox="0 0 24.91 19.09"><title>socialmedia-white</title><path d="M10.31,17.06a.93.93,0,0,1-.46-.12,1,1,0,0,1-.5-.84V9a1,1,0,0,1,1-1,1,1,0,0,1,.51.14l5.72,3.58a1,1,0,0,1,.45.82.93.93,0,0,1-.45.81l-5.72,3.58A1,1,0,0,1,10.31,17.06Zm1-2.69,3-1.85-3-1.84Z" transform="translate(0 -2.98)" style="fill:#fff"/><path d="M3.82,22.07A3.82,3.82,0,0,1,0,18.25V6.8A3.82,3.82,0,0,1,3.82,3H21.09A3.82,3.82,0,0,1,24.91,6.8V18.25a3.82,3.82,0,0,1-3.82,3.82Zm0-17.17a1.9,1.9,0,0,0-1.9,1.9V18.25a1.9,1.9,0,0,0,1.9,1.9H21.09a1.9,1.9,0,0,0,1.9-1.9V6.8a1.9,1.9,0,0,0-1.9-1.9Z" transform="translate(0 -2.98)" style="fill:#fff"/></svg>